<?xml version="1.0" encoding="utf-8"?>
<!-- Generator: Adobe Illustrator 24.0.0, SVG Export Plug-In . SVG Version: 6.00 Build 0)  -->
<svg version="1.1" id="Layer_1" xmlns="http://www.w3.org/2000/svg" xmlns:xlink="http://www.w3.org/1999/xlink" x="0px" y="0px"
	 viewBox="0 0 469.8 608.1" style="enable-background:new 0 0 469.8 608.1;" xml:space="preserve">
<style type="text/css">
	.st0{fill:#FFFFFF;}
	.st1{fill:url(#SVGID_1_);}
	.st2{fill:url(#SVGID_2_);}
	.st3{fill:url(#SVGID_3_);}
	.st4{fill:url(#SVGID_4_);}
	.st5{fill:url(#SVGID_5_);}
	.st6{fill:url(#SVGID_6_);}
	.st7{fill:url(#SVGID_7_);}
	.st8{fill:url(#SVGID_8_);}
	.st9{fill:url(#SVGID_9_);}
	.st10{fill:url(#SVGID_10_);}
	.st11{fill:url(#SVGID_11_);}
	.st12{fill:url(#SVGID_12_);}
	.st13{fill:url(#SVGID_13_);}
</style>
<rect class="st0" width="469.8" height="608.1"/>
<g>
	<g>
		<g>
			<radialGradient id="SVGID_1_" cx="80.3678" cy="401.9043" r="334.8822" gradientUnits="userSpaceOnUse">
				<stop  offset="0" style="stop-color:#FEC053"/>
				<stop  offset="0.3273" style="stop-color:#F2203E"/>
				<stop  offset="0.6485" style="stop-color:#B729A8"/>
				<stop  offset="1" style="stop-color:#5342D6"/>
			</radialGradient>
			<path class="st1" d="M99.8,331.4H70.2c-10.8,0-19.5-8.8-19.5-19.5v-29.6c0-10.8,8.8-19.5,19.5-19.5h29.6
				c10.8,0,19.5,8.8,19.5,19.5v29.6C119.3,322.7,110.5,331.4,99.8,331.4z M70.2,268.7c-7.5,0-13.7,6.1-13.7,13.7v29.6
				c0,7.5,6.1,13.7,13.7,13.7h29.6c7.5,0,13.7-6.1,13.7-13.7v-29.6c0-7.5-6.1-13.7-13.7-13.7H70.2z"/>
		</g>
		<g>
			<radialGradient id="SVGID_2_" cx="80.3678" cy="401.9043" r="334.8822" gradientUnits="userSpaceOnUse">
				<stop  offset="0" style="stop-color:#FEC053"/>
				<stop  offset="0.3273" style="stop-color:#F2203E"/>
				<stop  offset="0.6485" style="stop-color:#B729A8"/>
				<stop  offset="1" style="stop-color:#5342D6"/>
			</radialGradient>
			<path class="st2" d="M85,314.7c-9.7,0-17.6-7.9-17.6-17.6c0-9.7,7.9-17.6,17.6-17.6c9.7,0,17.6,7.9,17.6,17.6
				C102.6,306.8,94.7,314.7,85,314.7z M85,285.4c-6.4,0-11.7,5.2-11.7,11.7c0,6.4,5.2,11.7,11.7,11.7c6.4,0,11.7-5.2,11.7-11.7
				C96.7,290.7,91.4,285.4,85,285.4z"/>
		</g>
		<g>
			<radialGradient id="SVGID_3_" cx="80.3678" cy="401.9039" r="334.8815" gradientUnits="userSpaceOnUse">
				<stop  offset="0" style="stop-color:#FEC053"/>
				<stop  offset="0.3273" style="stop-color:#F2203E"/>
				<stop  offset="0.6485" style="stop-color:#B729A8"/>
				<stop  offset="1" style="stop-color:#5342D6"/>
			</radialGradient>
			<path class="st3" d="M107.5,278.5c0,2.3-1.9,4.2-4.2,4.2c-2.3,0-4.2-1.9-4.2-4.2c0-2.3,1.9-4.2,4.2-4.2
				C105.6,274.3,107.5,276.2,107.5,278.5z"/>
		</g>
	</g>
	<g>
		<radialGradient id="SVGID_4_" cx="80.3679" cy="401.9045" r="334.8837" gradientUnits="userSpaceOnUse">
			<stop  offset="0" style="stop-color:#FEC053"/>
			<stop  offset="0.3273" style="stop-color:#F2203E"/>
			<stop  offset="0.6485" style="stop-color:#B729A8"/>
			<stop  offset="1" style="stop-color:#5342D6"/>
		</radialGradient>
		<path class="st4" d="M219.7,274.5c0,0-0.1,0.2-0.2,0.4c-0.1,0.2-0.1,0.5-0.1,1c0,0.7,0.1,1.3,0.3,2v24.3c0,2.5-0.2,4.9-0.7,7.2
			c-0.5,2.3-1.3,4.3-2.5,6.1c-1.2,1.8-2.8,3.2-4.9,4.3c-2.1,1.1-4.7,1.6-8,1.6h-1c-2.8,0-5.1-0.4-6.8-1.1c-1.7-0.8-3.1-1.7-4.1-2.9
			c-1-1.2-1.6-2.5-2-3.9c-0.3-1.4-0.5-2.7-0.5-4c0-1.1,0.1-2.1,0.4-3.1c0.3-1,0.7-1.9,1.2-2.6c0.5-0.8,1.1-1.4,1.9-1.8
			c0.7-0.5,1.6-0.7,2.5-0.7c0.9,0,1.4,0.2,1.7,0.7c0.2,0.5,0.4,0.9,0.4,1.4c0,1.1-0.2,2-0.7,2.7c-0.4,0.7-0.9,1.3-1.4,1.9
			c-0.5,0.5-1,1.1-1.4,1.6c-0.4,0.5-0.7,1.2-0.7,2c0,2.4,0.8,4,2.4,5.1c1.6,1,3.5,1.5,5.9,1.5c2.1,0,3.8-0.4,5.4-1.2
			c1.5-0.8,2.8-1.9,3.8-3.2c1-1.3,1.8-2.7,2.2-4.2c0.5-1.5,0.7-2.9,0.7-4.2l-1.1,0.1c-1.8,0-3.3-0.4-4.6-1.2c-1.3-0.8-2.4-1.8-3.2-3
			c-0.9-1.2-1.5-2.5-1.9-4c-0.4-1.4-0.6-2.7-0.6-4v-2.6c0-0.9,0.1-2,0.4-3.3c0.2-1.2,0.6-2.5,1-3.9c0.4-1.3,1-2.7,1.6-4
			c0.6-1.3,1.3-2.5,2.1-3.5c0.7-1,1.5-1.9,2.4-2.5c0.8-0.6,1.7-1,2.6-1c0.3,0,0.7,0.1,1.2,0.2l5.1,0.4c0.3,0,0.7,0.2,1,0.4
			C219.5,273.6,219.7,274,219.7,274.5z M213.4,283.3c0.1-0.4,0.2-0.8,0.3-1.1c0.1-0.3,0.1-0.7,0.1-1.2c0-0.6-0.2-1.2-0.5-1.7
			c-0.3-0.5-0.9-0.8-1.7-0.8c-1.1,0-2,0.4-2.6,1.3c-0.7,0.9-1.2,1.9-1.6,3.2c-0.4,1.2-0.6,2.5-0.8,3.8c-0.1,1.3-0.2,2.4-0.2,3.2
			c0,0.6,0,1.6,0.1,2.8c0.1,1.2,0.3,2.4,0.7,3.6c0.4,1.2,0.9,2.2,1.5,3.1c0.7,0.9,1.6,1.3,2.7,1.3c0.1,0,0.4,0,0.8-0.1
			c0.5,0,0.8-0.1,1.1-0.2V283.3z"/>
		<radialGradient id="SVGID_5_" cx="80.3675" cy="401.9044" r="334.8841" gradientUnits="userSpaceOnUse">
			<stop  offset="0" style="stop-color:#FEC053"/>
			<stop  offset="0.3273" style="stop-color:#F2203E"/>
			<stop  offset="0.6485" style="stop-color:#B729A8"/>
			<stop  offset="1" style="stop-color:#5342D6"/>
		</radialGradient>
		<path class="st5" d="M236.5,302.4c-0.7,1-1.3,2.2-1.8,3.4c-0.5,1.2-0.9,2.5-1.2,3.9c-0.3,1.3-0.6,2.7-0.8,4
			c-0.2,1.3-0.5,2.6-0.7,3.9c-0.1,0.3-0.5,0.5-1.1,0.6c-0.7,0.1-1.1,0.1-1.4,0.1c-0.9,0-1.6,0-2.2-0.1c-0.6-0.1-1-0.3-1.3-0.7
			c-0.3-0.4-0.5-0.9-0.7-1.7c-0.1-0.8-0.3-1.8-0.4-3.1l1-21.8c0-0.6,0.3-1,1-1c0.2,0,0.6,0,1,0.1c0.4,0.1,0.9,0.2,1.4,0.3
			c0.5,0.1,0.9,0.3,1.3,0.6c0.3,0.2,0.5,0.5,0.5,0.8v14.9c0,0,0.1-0.2,0.2-0.6c0.3-0.9,0.8-2,1.2-3.3c0.5-1.3,1-2.5,1.6-3.7
			c0.6-1.2,1.2-2.2,1.9-3c0.7-0.8,1.3-1.3,2-1.3c0.9,0,1.6,0.2,2,0.6c0.5,0.4,0.8,0.9,1.1,1.6c0.2,0.6,0.4,1.3,0.4,2.1
			c0,0.7,0.1,1.4,0.1,2.1c0,0.5,0,1.3-0.1,2.4c-0.1,1.1-0.1,2.8-0.1,5.1c0,1.3,0.1,2.4,0.4,3.5c0.2,1,0.7,1.5,1.5,1.5
			c0.5,0,1-0.2,1.5-0.7c0.4-0.5,0.8-1.1,1.2-1.8c0.4-0.7,0.7-1.5,0.9-2.4c0.2-0.8,0.4-1.6,0.4-2.4c0-0.9,0.4-1.4,1.1-1.4
			c0.4,0,0.7,0.1,0.9,0.4c0.1,0.3,0.2,0.6,0.2,1v0.1c0,1-0.2,2.1-0.6,3.3c-0.3,1.2-0.8,2.4-1.4,3.5c-0.6,1.1-1.4,2-2.4,2.7
			c-1,0.7-2.2,1.1-3.6,1.1c-2.2,0-3.6-0.8-4.2-2.4c-0.6-1.6-0.9-4-0.9-7.1L236.5,302.4z"/>
		<radialGradient id="SVGID_6_" cx="80.3674" cy="401.9045" r="334.8835" gradientUnits="userSpaceOnUse">
			<stop  offset="0" style="stop-color:#FEC053"/>
			<stop  offset="0.3273" style="stop-color:#F2203E"/>
			<stop  offset="0.6485" style="stop-color:#B729A8"/>
			<stop  offset="1" style="stop-color:#5342D6"/>
		</radialGradient>
		<path class="st6" d="M265.2,313.9c0,1.2-0.4,2.1-1.2,2.7c-0.8,0.6-1.7,1.1-2.7,1.4c-1,0.3-2,0.5-3,0.6c-1,0.1-1.7,0.1-2.2,0.1
			c-0.7,0-1.5-0.1-2.5-0.2c-1-0.1-2-0.4-2.9-0.7c-1-0.3-1.8-0.8-2.4-1.4c-0.7-0.6-1-1.3-1-2.2c0-0.5,0.2-0.9,0.6-1.1
			c0.4-0.2,0.8-0.3,1.2-0.3c0.5,0,1.1,0.2,1.6,0.6c0.5,0.4,1.1,0.8,1.6,1.3c0.6,0.4,1.2,0.9,1.9,1.2c0.7,0.4,1.5,0.6,2.4,0.6
			c0.4,0,0.9-0.1,1.6-0.4c0.7-0.3,1-0.7,1-1.4s-0.3-1.3-0.8-2c-0.6-0.6-1.3-1.3-2.1-2c-0.9-0.7-1.8-1.4-2.8-2.1
			c-1-0.7-1.9-1.5-2.8-2.4c-0.9-0.9-1.6-1.8-2.1-2.8c-0.6-1-0.8-2.2-0.8-3.4c0-1.7,0.6-3.2,1.7-4.3c1.1-1.2,2.4-2.1,3.9-2.8
			c1.5-0.7,3-1.2,4.6-1.5c1.6-0.3,2.8-0.4,3.7-0.4c0.8,0,1.7,0.2,2.5,0.5c0.8,0.3,1.3,1,1.3,2c0,0.3-0.1,0.7-0.2,1.3
			c-0.1,0.6-0.3,1.1-0.6,1.7c-0.3,0.5-0.6,1-1.1,1.4c-0.4,0.4-1,0.6-1.7,0.6c-0.2,0-0.4-0.1-0.6-0.3c-0.2-0.2-0.4-0.4-0.7-0.6
			c-0.2-0.2-0.5-0.4-0.8-0.6c-0.3-0.2-0.6-0.3-0.9-0.3c-1.7,0-2.9,0.5-3.6,1.5s-1,2.1-1,3.2c0,1,0.6,2,1.7,3.1
			c1.2,1.1,2.4,2.2,3.8,3.2c1.4,1.1,2.7,2.1,3.8,3.2C264.6,311.9,265.2,312.9,265.2,313.9z"/>
		<radialGradient id="SVGID_7_" cx="80.3679" cy="401.9044" r="334.8836" gradientUnits="userSpaceOnUse">
			<stop  offset="0" style="stop-color:#FEC053"/>
			<stop  offset="0.3273" style="stop-color:#F2203E"/>
			<stop  offset="0.6485" style="stop-color:#B729A8"/>
			<stop  offset="1" style="stop-color:#5342D6"/>
		</radialGradient>
		<path class="st7" d="M266.8,305.1c0-2.5,0.1-5,0.2-7.6c0.1-2.6,0.2-5,0.3-7.2c0-0.4-0.4-0.7-1.2-0.8c-0.8-0.1-1.7-0.3-2.6-0.4
			c-1-0.1-1.9-0.4-2.6-0.7c-0.8-0.3-1.2-0.8-1.2-1.6c0-0.6,0.6-1,1.9-1.1c1.3-0.1,3.2-0.1,5.7-0.1c0.2,0,0.3-0.3,0.4-0.9
			c0.1-0.6,0.1-1.3,0.1-2.2c0-0.9,0-1.9,0.1-2.9c0-1,0.1-2,0.1-2.9c0-0.9,0.1-1.7,0.3-2.2c0.1-0.6,0.3-0.9,0.5-0.9
			c0.2,0,0.7,0,1.3,0.1c0.6,0.1,1.3,0.2,2,0.4c0.7,0.2,1.3,0.4,1.8,0.6c0.5,0.2,0.8,0.5,0.8,0.8l-0.8,9.6c0,0.3,0.3,0.5,0.8,0.6
			c0.5,0.1,1.2,0.2,2,0.2c0.8,0,1.7,0,2.6,0c0.9,0,1.8,0.1,2.6,0.2c0.8,0.1,1.5,0.4,2,0.7c0.5,0.3,0.8,0.8,0.8,1.4
			c0,0.1,0,0.3-0.1,0.5c-0.1,0.2-0.2,0.3-0.4,0.3c-0.1,0-0.2-0.1-0.4-0.2c-0.2-0.1-0.6-0.2-1.4-0.2c-0.2,0-0.7,0-1.6,0.1
			c-0.9,0-1.8,0.1-2.8,0.2c-1,0.1-1.9,0.2-2.7,0.3c-0.8,0.1-1.3,0.3-1.4,0.5c0,0.1-0.1,0.7-0.2,1.7c-0.1,1.1-0.1,2.4-0.2,4.2
			c-0.1,1.7-0.1,3.7-0.2,5.9c0,2.2-0.1,4.6-0.1,7c0,0.9,0,1.8,0.1,2.7c0.1,0.9,0.2,1.7,0.4,2.4c0.2,0.7,0.5,1.3,0.8,1.7
			c0.3,0.4,0.7,0.7,1.1,0.7c0.6,0,1.2-0.3,1.8-0.8c0.5-0.5,1-1.3,1.5-2.2c0.4-0.9,0.8-2,1.2-3.2c0.3-1.2,0.6-2.4,0.9-3.6
			c0.1-0.7,0.3-1.3,0.5-1.6c0.2-0.3,0.5-0.5,0.9-0.5c0.3,0,0.6,0.1,0.9,0.3c0.3,0.2,0.4,0.7,0.4,1.5c0,0.5,0,0.8-0.1,1
			c-0.1,0.9-0.4,2.1-0.8,3.6c-0.4,1.5-1,3.1-1.7,4.6c-0.7,1.5-1.6,2.8-2.6,3.9c-1,1.1-2.2,1.7-3.6,1.7c-1.3,0-2.5-0.4-3.5-1.1
			c-1-0.8-1.8-1.8-2.5-3.2c-0.7-1.3-1.2-2.9-1.5-4.8c-0.3-1.8-0.5-3.8-0.5-5.9V305.1z"/>
		<radialGradient id="SVGID_8_" cx="80.3678" cy="401.9048" r="334.884" gradientUnits="userSpaceOnUse">
			<stop  offset="0" style="stop-color:#FEC053"/>
			<stop  offset="0.3273" style="stop-color:#F2203E"/>
			<stop  offset="0.6485" style="stop-color:#B729A8"/>
			<stop  offset="1" style="stop-color:#5342D6"/>
		</radialGradient>
		<path class="st8" d="M310.4,310.4c-0.1,0.7-0.3,1.5-0.7,2.4c-0.4,0.9-0.9,1.8-1.5,2.7c-0.6,0.9-1.3,1.6-2.1,2.2
			c-0.8,0.6-1.7,0.9-2.7,0.9c-1.5,0-2.8-0.6-3.9-1.7c-1.1-1.1-1.8-2.7-2-4.8c-0.3,0.8-0.6,1.7-1,2.7c-0.4,1-0.9,2-1.5,2.9
			c-0.6,0.9-1.3,1.6-2,2.2c-0.8,0.6-1.7,0.9-2.7,0.9c-0.3,0-0.5,0-0.7-0.1c-0.1,0-0.3-0.1-0.5-0.2c-0.2-0.1-0.4-0.1-0.6-0.2
			c-0.2-0.1-0.5-0.1-0.9-0.1c-1.2,0-2.2-0.4-3-1.1c-0.8-0.8-1.5-1.7-1.9-2.9c-0.5-1.2-0.8-2.5-1.1-3.9c-0.2-1.4-0.3-2.7-0.3-3.9
			c0-2.9,0.2-5.7,0.5-8.4c0.3-2.6,0.8-5,1.6-7c0.7-2,1.7-3.7,2.9-4.9c1.2-1.2,2.6-1.8,4.3-1.8c1,0,1.7,0.1,2.2,0.3
			c0.5,0.2,1,0.4,1.4,0.6c0.4,0.2,0.9,0.5,1.4,0.7c0.5,0.2,1.2,0.4,2.2,0.6c1,0.6,1.8,1.3,2.2,2.1c0.4,0.8,0.7,1.7,0.8,2.6
			c0.1,0.9,0.2,1.9,0.1,2.9c0,1,0,2,0.1,3c0,0,0.1,0.1,0.3,0.2c0.2,0.1,0.5,0.2,0.8,0.3c0.3,0.1,0.6,0.3,0.8,0.5
			c0.2,0.2,0.3,0.5,0.3,0.8v0.3c-0.5,1.3-0.8,2.4-0.9,3.4c-0.1,1-0.1,2.2-0.1,3.5c0,0.7,0,1.4,0.1,2.2c0.1,0.8,0.2,1.6,0.4,2.3
			c0.2,0.7,0.4,1.3,0.8,1.8c0.3,0.5,0.8,0.7,1.3,0.7c0.6,0,1.1-0.3,1.6-0.9c0.5-0.6,0.9-1.3,1.2-2c0.3-0.8,0.6-1.5,0.8-2.3
			c0.2-0.8,0.4-1.4,0.4-1.8c0.1-0.6,0.3-0.9,0.7-0.9c0.2,0,0.5,0.1,0.7,0.4c0.2,0.3,0.3,0.7,0.3,1.4c0,0.2,0,0.4,0,0.6
			C310.5,310,310.5,310.2,310.4,310.4z M296.8,298.5c0-0.5,0-1.2-0.1-1.9c-0.1-0.7-0.3-1.4-0.5-2.1c-0.2-0.6-0.6-1.2-1.1-1.6
			c-0.5-0.4-1.2-0.7-2-0.7c-1.4,0-2.5,0.6-3.3,1.9c-0.9,1.2-1.5,2.7-2,4.4c-0.5,1.7-0.8,3.4-1,5.2c-0.1,1.8-0.2,3.2-0.2,4.2
			c0,0.8,0,1.7,0.1,2.8c0.1,1.1,0.2,2.1,0.4,3.1c0.2,1,0.5,1.8,0.8,2.5c0.4,0.7,0.8,1,1.4,1c1.4,0,2.5-0.6,3.3-1.7
			c0.8-1.1,1.3-2.5,1.7-4.1c0.4-1.6,0.7-3.4,0.8-5.3c0.2-1.9,0.3-3.6,0.5-5.2c0.1-0.8,0.3-1.4,0.7-1.6c0.3-0.2,0.5-0.4,0.5-0.5
			V298.5z"/>
		<radialGradient id="SVGID_9_" cx="80.3673" cy="401.9043" r="334.883" gradientUnits="userSpaceOnUse">
			<stop  offset="0" style="stop-color:#FEC053"/>
			<stop  offset="0.3273" style="stop-color:#F2203E"/>
			<stop  offset="0.6485" style="stop-color:#B729A8"/>
			<stop  offset="1" style="stop-color:#5342D6"/>
		</radialGradient>
		<path class="st9" d="M332.6,320.3c0,0.5-0.2,0.8-0.7,1c-0.4,0.2-0.9,0.3-1.3,0.3l-1.5-0.1c-0.2,0-0.4,0.1-0.4,0.4l-0.1,0.9
			c0,1.3,0.1,3,0.1,5c0,2,0,3.9,0,5.8c0,2-0.1,3.9-0.2,5.8c-0.1,1.9-0.4,3.6-0.8,5.1c-0.4,1.5-1.1,2.7-1.9,3.6
			c-0.8,0.9-1.9,1.4-3.3,1.4c-1.2,0-2.5-0.1-3.9-0.2c-1.3-0.1-2.6-0.4-3.7-0.9c-1.1-0.5-2-1.2-2.7-2.2c-0.7-1-1.1-2.2-1.1-3.9
			s0.2-3.3,0.6-5c0.4-1.7,0.9-3.3,1.6-4.9c0.7-1.6,1.5-3.1,2.5-4.6c1-1.4,2-2.7,3.1-3.9c0.6-0.6,1.2-1.2,2-1.8
			c0.7-0.6,1.3-1.1,1.9-1.5v-0.1c0.1-1,0.2-2.1,0.2-3.1c0-1,0.1-2.1,0.1-3.2c-0.2,0.4-0.5,1-0.9,1.8c-0.3,0.8-0.8,1.5-1.2,2.2
			c-0.5,0.7-1,1.3-1.6,1.8c-0.6,0.5-1.3,0.8-2,0.8c-0.4,0-0.7-0.1-1-0.2c-0.3-0.1-0.7-0.2-1.3-0.2c-1.4-0.1-2.5-0.5-3.4-1.1
			c-0.9-0.6-1.6-1.5-2.1-2.6c-0.5-1.1-0.9-2.5-1.1-4c-0.2-1.5-0.3-3.3-0.3-5.2c0-2.3,0.1-4.7,0.4-7.1c0.3-2.5,0.7-4.7,1.4-6.7
			c0.7-2,1.6-3.7,2.8-5c1.2-1.3,2.6-1.9,4.4-1.9c0.2,0,0.5,0.1,0.8,0.2c0.3,0.1,0.7,0.3,1,0.5c0.4,0.2,0.7,0.3,1.1,0.5
			c0.4,0.2,0.7,0.3,0.8,0.3c1,0.2,1.9,0.4,2.7,0.7c0.8,0.3,1.5,0.7,2.1,1.1c0.6,0.5,1.1,1.1,1.4,1.8c0.3,0.8,0.5,1.7,0.5,2.8
			c0,0.8-0.1,1.5-0.2,2.1c-0.1,0.6-0.2,1.4-0.2,2.4c0,0.4,0.1,0.7,0.4,0.8c0.3,0.1,0.6,0.3,1,0.4c0.4,0.1,0.7,0.2,1,0.3
			c0.3,0.1,0.4,0.4,0.4,0.8c0,0.1-0.1,0.3-0.3,0.7c-0.2,0.4-0.4,0.6-0.4,0.7c-0.1,0.4-0.3,1-0.4,1.9c-0.1,0.9-0.2,1.8-0.2,2.8
			c0,1-0.1,2-0.1,3.1c0,1.1,0,2,0,2.8c0,0.6,0,1.5,0,2.5c0,1.1,0,1.9,0.1,2.6h0.3c0.1,0,0.2,0,0.3,0c0.1,0,0.2,0,0.2,0
			c0.4,0,1,0.1,1.8,0.4C332.2,319.4,332.6,319.8,332.6,320.3z M323.3,297.6c0-0.5,0-1.2-0.1-1.8c-0.1-0.7-0.3-1.3-0.5-1.9
			c-0.2-0.6-0.6-1.1-1.1-1.5c-0.5-0.4-1-0.6-1.7-0.6c-0.9,0-1.8,0.4-2.6,1.1c-0.8,0.7-1.5,1.8-2.1,3.1c-0.6,1.3-1.1,3-1.5,4.9
			c-0.4,1.9-0.6,4.1-0.6,6.6c0,1,0,2.1,0.1,3.2c0.1,1.1,0.2,2.1,0.4,3c0.2,0.9,0.4,1.6,0.8,2.2c0.4,0.6,0.8,0.9,1.4,0.9
			c1,0,1.9-0.4,2.7-1.3c0.8-0.9,1.4-2,1.9-3.3c0.5-1.3,0.9-2.6,1.2-4c0.3-1.4,0.4-2.6,0.5-3.6c0.1-1.4,0.1-2.4,0.2-2.9
			c0.1-0.5,0.2-0.8,0.3-1c0.3-0.4,0.5-0.9,0.6-1.4C323.2,298.6,323.3,298.1,323.3,297.6z M323,323.1c-1.1,0.8-2.2,1.9-3.2,3.3
			c-1,1.4-1.9,3-2.6,4.6c-0.7,1.7-1.3,3.4-1.7,5.1c-0.4,1.7-0.6,3.3-0.6,4.6c0,0.5,0,1,0.1,1.6c0.1,0.6,0.3,1.1,0.5,1.7
			c0.2,0.5,0.5,0.9,1,1.3c0.4,0.3,0.9,0.5,1.5,0.5c1,0,1.9-0.4,2.6-1.3c0.7-0.9,1.2-1.9,1.6-3c0.4-1.2,0.6-2.4,0.7-3.6
			c0.1-1.2,0.2-2.2,0.2-2.9c0-0.1,0-0.4,0-0.7c0-0.3,0-0.9,0-1.7c0-0.8,0-2,0-3.5C323,327.6,323,325.6,323,323.1z"/>
		<radialGradient id="SVGID_10_" cx="80.3688" cy="401.9044" r="334.881" gradientUnits="userSpaceOnUse">
			<stop  offset="0" style="stop-color:#FEC053"/>
			<stop  offset="0.3273" style="stop-color:#F2203E"/>
			<stop  offset="0.6485" style="stop-color:#B729A8"/>
			<stop  offset="1" style="stop-color:#5342D6"/>
		</radialGradient>
		<path class="st10" d="M354.6,308.1c0,0.3-0.1,1.2-0.3,2.5c-0.2,1.3-0.6,2.7-1.2,4.1c-0.6,1.4-1.3,2.7-2.3,3.9
			c-1,1.1-2.2,1.7-3.6,1.7c-1.6,0-2.8-0.6-3.7-1.7c-0.9-1.1-1.6-2.4-2.1-4c-0.5-1.5-0.8-3.2-1-4.9c-0.1-1.7-0.2-3.1-0.2-4.2
			c0-1.3,0.1-2.6,0.2-3.9c0.1-1.3,0.2-2.6,0.3-3.9c0-0.4-0.2-0.6-0.6-0.7c-0.4-0.1-0.8-0.1-1.1-0.1c-0.6,0-1,0.1-1.1,0.2
			c-0.1,0.1-0.2,0.3-0.3,0.5l-0.3,2.4c-0.2,1.6-0.4,3.1-0.6,4.5c-0.2,1.4-0.5,2.7-0.7,3.8c-0.3,1.1-0.6,2-1,2.6
			c-0.4,0.7-0.8,1-1.3,1h-0.1c-0.2,0-0.4,0-0.6-0.1c-0.2-0.1-0.3-0.3-0.3-0.7c0-0.2,0-0.5,0.1-0.9c0.4-1.7,0.6-3.1,0.7-4.3
			c0.1-1.1,0.2-2.1,0.2-3v-0.5c0-0.2,0-0.5,0-0.9c0-0.3,0-0.8,0-1.3v-1.9c0-0.5,0-1.1,0-1.7c0-0.6,0-1.2-0.1-1.9l-0.2-4.3
			c0-0.3,0.1-0.6,0.4-0.8c0.2-0.2,0.6-0.5,1-0.7c0.4-0.2,0.8-0.3,1.3-0.4c0.4-0.1,0.8-0.1,1.2-0.1c0.8,0,1.2,0.5,1.2,1.6v0.4
			l-0.1,1.6v0.4c0,0.3,0.1,0.6,0.2,0.6c0.1,0.1,0.4,0.2,0.9,0.3h0.2c0.4,0,1,0.1,1.9,0.1c0.9,0,1.8,0.1,2.6,0.3
			c0.9,0.1,1.7,0.4,2.3,0.7c0.7,0.3,1,0.8,1,1.4c0,0.2,0,0.5-0.1,0.8c-0.1,0.4-0.2,0.7-0.4,1.1c-0.1,0.4-0.3,0.7-0.4,1
			c-0.1,0.3-0.1,0.5-0.1,0.6c-0.9,3.4-1.3,6.9-1.3,10.6c0,0.3,0,0.8,0.1,1.6c0,0.8,0.1,1.6,0.3,2.4c0.1,0.8,0.4,1.6,0.7,2.2
			c0.3,0.6,0.7,1,1.1,1c0.7,0,1.4-0.5,2-1.4c0.6-0.9,1.1-2,1.5-3.2c0.4-1.2,0.8-2.4,1.1-3.6c0.3-1.2,0.5-2.1,0.6-2.7
			c0.1-0.5,0.3-0.9,0.5-1c0.2-0.1,0.4-0.2,0.6-0.2c0.7,0,1,0.4,1,1.3c0,0.1,0,0.4,0,0.8C354.7,307.6,354.6,307.9,354.6,308.1z"/>
		<radialGradient id="SVGID_11_" cx="80.3681" cy="401.9048" r="334.8822" gradientUnits="userSpaceOnUse">
			<stop  offset="0" style="stop-color:#FEC053"/>
			<stop  offset="0.3273" style="stop-color:#F2203E"/>
			<stop  offset="0.6485" style="stop-color:#B729A8"/>
			<stop  offset="1" style="stop-color:#5342D6"/>
		</radialGradient>
		<path class="st11" d="M381.6,310.4c-0.1,0.7-0.3,1.5-0.7,2.4c-0.4,0.9-0.9,1.8-1.5,2.7c-0.6,0.9-1.3,1.6-2.1,2.2
			c-0.8,0.6-1.7,0.9-2.7,0.9c-1.5,0-2.8-0.6-3.9-1.7c-1.1-1.1-1.8-2.7-2-4.8c-0.3,0.8-0.6,1.7-1,2.7c-0.4,1-0.9,2-1.5,2.9
			c-0.6,0.9-1.3,1.6-2,2.2c-0.8,0.6-1.7,0.9-2.7,0.9c-0.3,0-0.5,0-0.7-0.1c-0.1,0-0.3-0.1-0.5-0.2c-0.2-0.1-0.4-0.1-0.6-0.2
			c-0.2-0.1-0.5-0.1-0.9-0.1c-1.2,0-2.2-0.4-3-1.1c-0.8-0.8-1.5-1.7-1.9-2.9c-0.5-1.2-0.8-2.5-1.1-3.9c-0.2-1.4-0.3-2.7-0.3-3.9
			c0-2.9,0.2-5.7,0.5-8.4c0.3-2.6,0.8-5,1.6-7c0.7-2,1.7-3.7,2.9-4.9c1.2-1.2,2.6-1.8,4.3-1.8c1,0,1.7,0.1,2.2,0.3
			c0.5,0.2,1,0.4,1.4,0.6c0.4,0.2,0.9,0.5,1.4,0.7c0.5,0.2,1.2,0.4,2.2,0.6c1,0.6,1.8,1.3,2.2,2.1c0.4,0.8,0.7,1.7,0.8,2.6
			c0.1,0.9,0.2,1.9,0.1,2.9c0,1,0,2,0.1,3c0,0,0.1,0.1,0.3,0.2c0.2,0.1,0.5,0.2,0.8,0.3c0.3,0.1,0.6,0.3,0.8,0.5
			c0.2,0.2,0.3,0.5,0.3,0.8v0.3c-0.5,1.3-0.8,2.4-0.9,3.4c-0.1,1-0.1,2.2-0.1,3.5c0,0.7,0,1.4,0.1,2.2c0.1,0.8,0.2,1.6,0.4,2.3
			c0.2,0.7,0.4,1.3,0.8,1.8c0.3,0.5,0.8,0.7,1.3,0.7c0.6,0,1.1-0.3,1.6-0.9c0.5-0.6,0.9-1.3,1.2-2c0.3-0.8,0.6-1.5,0.8-2.3
			c0.2-0.8,0.4-1.4,0.4-1.8c0.1-0.6,0.3-0.9,0.7-0.9c0.2,0,0.5,0.1,0.7,0.4c0.2,0.3,0.3,0.7,0.3,1.4c0,0.2,0,0.4,0,0.6
			C381.6,310,381.6,310.2,381.6,310.4z M368,298.5c0-0.5,0-1.2-0.1-1.9c-0.1-0.7-0.3-1.4-0.5-2.1c-0.2-0.6-0.6-1.2-1.1-1.6
			c-0.5-0.4-1.2-0.7-2-0.7c-1.4,0-2.5,0.6-3.3,1.9c-0.9,1.2-1.5,2.7-2,4.4c-0.5,1.7-0.8,3.4-1,5.2c-0.1,1.8-0.2,3.2-0.2,4.2
			c0,0.8,0,1.7,0.1,2.8c0.1,1.1,0.2,2.1,0.4,3.1c0.2,1,0.5,1.8,0.8,2.5c0.4,0.7,0.8,1,1.4,1c1.4,0,2.5-0.6,3.3-1.7
			c0.8-1.1,1.3-2.5,1.7-4.1c0.4-1.6,0.7-3.4,0.8-5.3c0.2-1.9,0.3-3.6,0.5-5.2c0.1-0.8,0.3-1.4,0.7-1.6c0.3-0.2,0.5-0.4,0.5-0.5
			V298.5z"/>
		<radialGradient id="SVGID_12_" cx="80.3677" cy="401.9044" r="334.884" gradientUnits="userSpaceOnUse">
			<stop  offset="0" style="stop-color:#FEC053"/>
			<stop  offset="0.3273" style="stop-color:#F2203E"/>
			<stop  offset="0.6485" style="stop-color:#B729A8"/>
			<stop  offset="1" style="stop-color:#5342D6"/>
		</radialGradient>
		<path class="st12" d="M404.1,300.4c-0.7,1.3-1.3,2.7-1.9,4.2c-0.6,1.5-1,2.6-1.3,3.5c0,0.2-0.2,0.8-0.4,1.5
			c-0.2,0.8-0.5,1.7-0.7,2.6c-0.3,1-0.5,1.9-0.7,2.8c-0.2,0.9-0.3,1.7-0.3,2.3c0,0.2-0.2,0.5-0.7,0.7c-0.4,0.2-1,0.3-1.7,0.3
			c-1.1,0-1.9-0.1-2.6-0.4c-0.6-0.3-1.1-0.8-1.4-1.4c-0.3-0.7-0.5-1.5-0.6-2.6c-0.1-1.1-0.1-2.4-0.1-3.9v-5.5c0-0.4,0-0.8,0-1.2
			c0-0.4-0.1-0.6-0.3-0.7c-0.2,0.1-0.5,0.7-0.9,1.9c-0.4,1.2-0.7,2.6-1,4.3c-0.3,1.7-0.6,3.5-0.8,5.3c-0.2,1.9-0.4,3.5-0.4,5
			c0,0.5-0.3,0.9-0.8,1c-0.6,0.1-1.2,0.1-1.9,0.1c-0.2,0-0.5,0-1-0.1c-0.5-0.1-0.9-0.2-1.4-0.3c-0.5-0.1-0.9-0.2-1.3-0.4
			c-0.4-0.2-0.6-0.4-0.7-0.6c-0.2-0.6-0.4-1.7-0.6-3.2c-0.1-1.5-0.2-3.7-0.2-6.8c0-1.8,0-3.9,0.1-6.3c0.1-2.4,0.2-5.2,0.3-8.5
			c0-0.4,0-1-0.1-1.7c0-0.7-0.1-1.1-0.1-1.2c0-0.4,0.2-0.6,0.5-0.7c0.3-0.1,0.6-0.1,0.7-0.1c0.3,0,0.7,0,1.2,0.1
			c0.5,0.1,0.9,0.2,1.4,0.3c0.5,0.1,0.9,0.2,1.3,0.3c0.4,0.1,0.7,0.2,0.8,0.3v17.7c0.2-1,0.5-2.1,0.8-3.4c0.3-1.3,0.7-2.6,1.1-3.9
			c0.4-1.3,0.9-2.4,1.4-3.5c0.5-1.1,1-1.9,1.5-2.4c0.2-0.1,0.6-0.3,1.1-0.3c0.5-0.1,1-0.1,1.3-0.1c0.2,0,0.5,0,0.9,0.1
			c0.4,0.1,0.7,0.2,1.1,0.3c0.3,0.1,0.6,0.3,0.9,0.6c0.3,0.2,0.4,0.5,0.5,0.8V309v0.7c0,0.3,0,0.4,0.1,0.4c0.1,0,0.4-0.7,0.8-2
			c0.5-1.3,1-2.9,1.6-4.7c0.6-1.8,1.3-3.7,2-5.6c0.7-1.9,1.4-3.4,2-4.6c0.1-0.2,0.4-0.3,1-0.3c0.6,0,1.1,0,1.5,0
			c0.3,0,0.8,0.1,1.4,0.3c0.6,0.2,1.2,0.5,1.7,0.9c0.6,0.4,1,0.8,1.5,1.3c0.4,0.5,0.6,1,0.6,1.5c0,0.1-0.1,0.4-0.4,0.8
			c-0.3,0.5-0.5,0.9-0.6,1.4c-0.3,1.4-0.6,2.7-0.7,4c-0.1,1.3-0.2,3-0.2,5.1c0,0.9,0,1.8,0.1,2.6c0.1,0.9,0.2,1.7,0.4,2.4
			c0.2,0.7,0.4,1.3,0.7,1.7c0.3,0.4,0.7,0.7,1.2,0.7c0.7,0,1.3-0.2,1.8-0.7c0.5-0.5,1-1.1,1.4-1.9c0.4-0.8,0.7-1.7,1-2.8
			c0.3-1.1,0.5-2.1,0.7-3.3c0.2-1.2,0.7-1.8,1.3-1.8c0.4,0,0.6,0.1,0.8,0.3c0.1,0.2,0.2,0.6,0.2,1.3c0,0.4,0,0.7-0.1,0.8
			c0,0.6-0.3,1.6-0.6,3c-0.4,1.3-0.9,2.7-1.5,4c-0.7,1.3-1.5,2.5-2.5,3.5c-1,1-2.1,1.5-3.4,1.5c-1.5,0-2.8-0.4-3.7-1.1
			c-1-0.7-1.7-1.7-2.3-2.9c-0.5-1.2-0.9-2.6-1.1-4.2c-0.2-1.6-0.3-3.2-0.3-4.9v-0.5L404.1,300.4z"/>
	</g>
	<g>
		<radialGradient id="SVGID_13_" cx="80.3678" cy="401.9046" r="334.8838" gradientUnits="userSpaceOnUse">
			<stop  offset="0" style="stop-color:#FEC053"/>
			<stop  offset="0.3273" style="stop-color:#F2203E"/>
			<stop  offset="0.6485" style="stop-color:#B729A8"/>
			<stop  offset="1" style="stop-color:#5342D6"/>
		</radialGradient>
		<rect x="152" y="258.6" class="st13" width="4.6" height="76.9"/>
	</g>
</g>
</svg>
