<?xml version="1.0" encoding="utf-8"?>
<!-- Generator: Adobe Illustrator 24.0.0, SVG Export Plug-In . SVG Version: 6.00 Build 0)  -->
<svg version="1.1" id="Layer_1" xmlns="http://www.w3.org/2000/svg" xmlns:xlink="http://www.w3.org/1999/xlink" x="0px" y="0px"
	 viewBox="0 0 450 90" style="enable-background:new 0 0 450 90;" xml:space="preserve">
<style type="text/css">
	.st0{fill:#FFFFFF;}
	.st1{fill:url(#SVGID_1_);}
	.st2{fill:url(#SVGID_2_);}
	.st3{fill:url(#SVGID_3_);}
	.st4{fill:url(#SVGID_4_);}
	.st5{fill:url(#SVGID_5_);}
	.st6{fill:url(#SVGID_6_);}
	.st7{fill:url(#SVGID_7_);}
	.st8{fill:url(#SVGID_8_);}
	.st9{fill:url(#SVGID_9_);}
	.st10{fill:url(#SVGID_10_);}
	.st11{fill:url(#SVGID_11_);}
	.st12{fill:url(#SVGID_12_);}
</style>
<rect class="st0" width="450" height="90"/>
<g>
	<radialGradient id="SVGID_1_" cx="119.4143" cy="116.7508" r="241.888" gradientUnits="userSpaceOnUse">
		<stop  offset="0" style="stop-color:#FEC053"/>
		<stop  offset="0.3273" style="stop-color:#F2203E"/>
		<stop  offset="0.6485" style="stop-color:#B729A8"/>
		<stop  offset="1" style="stop-color:#5342D6"/>
	</radialGradient>
	<path class="st1" d="M220.1,24.7c0,0-0.1,0.1-0.1,0.3c-0.1,0.1-0.1,0.4-0.1,0.7c0,0.5,0.1,1,0.2,1.4v17.6c0,1.8-0.2,3.5-0.5,5.2
		c-0.4,1.7-1,3.1-1.8,4.4c-0.9,1.3-2.1,2.3-3.6,3.1c-1.5,0.8-3.4,1.1-5.8,1.1h-0.7c-2,0-3.7-0.3-4.9-0.8c-1.3-0.5-2.2-1.2-2.9-2.1
		c-0.7-0.8-1.2-1.8-1.4-2.8c-0.2-1-0.4-2-0.4-2.9c0-0.8,0.1-1.5,0.3-2.3c0.2-0.7,0.5-1.4,0.8-1.9c0.4-0.5,0.8-1,1.4-1.3
		c0.5-0.3,1.1-0.5,1.8-0.5c0.6,0,1,0.2,1.2,0.5c0.2,0.3,0.3,0.7,0.3,1c0,0.8-0.2,1.4-0.5,1.9c-0.3,0.5-0.7,1-1,1.4
		c-0.4,0.4-0.7,0.8-1,1.2c-0.3,0.4-0.5,0.9-0.5,1.4c0,1.7,0.6,2.9,1.7,3.7c1.1,0.7,2.5,1.1,4.2,1.1c1.5,0,2.8-0.3,3.9-0.9
		c1.1-0.6,2-1.4,2.7-2.3c0.7-0.9,1.3-1.9,1.6-3c0.4-1.1,0.5-2.1,0.5-3.1l-0.8,0.1c-1.3,0-2.4-0.3-3.3-0.9c-0.9-0.6-1.7-1.3-2.3-2.2
		c-0.6-0.9-1.1-1.8-1.4-2.9c-0.3-1-0.5-2-0.5-2.9v-1.9c0-0.7,0.1-1.5,0.3-2.4c0.2-0.9,0.4-1.8,0.7-2.8c0.3-1,0.7-1.9,1.2-2.9
		c0.5-0.9,1-1.8,1.5-2.5c0.5-0.7,1.1-1.3,1.7-1.8c0.6-0.5,1.2-0.7,1.9-0.7c0.2,0,0.5,0.1,0.8,0.2l3.7,0.3c0.2,0,0.5,0.1,0.7,0.3
		C219.9,24.1,220.1,24.4,220.1,24.7z M215.5,31.1c0.1-0.3,0.1-0.5,0.2-0.8c0.1-0.2,0.1-0.5,0.1-0.8c0-0.5-0.1-0.9-0.3-1.2
		c-0.2-0.4-0.6-0.6-1.2-0.6c-0.8,0-1.4,0.3-1.9,1c-0.5,0.6-0.9,1.4-1.1,2.3c-0.3,0.9-0.5,1.8-0.6,2.8c-0.1,1-0.2,1.7-0.2,2.3
		c0,0.5,0,1.1,0.1,2c0.1,0.9,0.2,1.7,0.5,2.6c0.3,0.8,0.6,1.6,1.1,2.2c0.5,0.6,1.1,1,1.9,1c0.1,0,0.3,0,0.6-0.1
		c0.3,0,0.6-0.1,0.8-0.2V31.1z"/>
	<radialGradient id="SVGID_2_" cx="119.414" cy="116.7507" r="241.8883" gradientUnits="userSpaceOnUse">
		<stop  offset="0" style="stop-color:#FEC053"/>
		<stop  offset="0.3273" style="stop-color:#F2203E"/>
		<stop  offset="0.6485" style="stop-color:#B729A8"/>
		<stop  offset="1" style="stop-color:#5342D6"/>
	</radialGradient>
	<path class="st2" d="M232.2,44.9c-0.5,0.7-1,1.6-1.3,2.5c-0.3,0.9-0.6,1.8-0.9,2.8c-0.2,1-0.5,1.9-0.6,2.9c-0.2,1-0.3,1.9-0.5,2.8
		c-0.1,0.2-0.3,0.4-0.8,0.4c-0.5,0.1-0.8,0.1-1,0.1c-0.6,0-1.2,0-1.6-0.1c-0.4-0.1-0.7-0.2-0.9-0.5c-0.2-0.3-0.4-0.7-0.5-1.2
		c-0.1-0.5-0.2-1.3-0.3-2.2l0.7-15.8c0-0.5,0.2-0.7,0.7-0.7c0.2,0,0.4,0,0.7,0.1c0.3,0.1,0.7,0.1,1,0.2c0.4,0.1,0.7,0.2,0.9,0.4
		c0.2,0.2,0.4,0.3,0.4,0.6V48c0,0,0.1-0.2,0.2-0.4c0.2-0.6,0.5-1.4,0.9-2.4c0.4-0.9,0.7-1.8,1.2-2.7c0.4-0.8,0.9-1.6,1.4-2.2
		c0.5-0.6,1-0.9,1.5-0.9c0.6,0,1.1,0.2,1.5,0.5c0.3,0.3,0.6,0.7,0.8,1.1c0.2,0.5,0.3,1,0.3,1.5c0,0.5,0.1,1,0.1,1.5
		c0,0.4,0,0.9-0.1,1.8c-0.1,0.8-0.1,2-0.1,3.7c0,0.9,0.1,1.8,0.3,2.5c0.2,0.7,0.5,1.1,1.1,1.1c0.4,0,0.7-0.2,1.1-0.5
		c0.3-0.4,0.6-0.8,0.9-1.3c0.3-0.5,0.5-1.1,0.7-1.7c0.2-0.6,0.3-1.2,0.3-1.7c0-0.7,0.3-1,0.8-1c0.3,0,0.5,0.1,0.6,0.3
		c0.1,0.2,0.2,0.5,0.2,0.7V48c0,0.7-0.2,1.5-0.4,2.4c-0.2,0.9-0.6,1.7-1,2.5c-0.4,0.8-1,1.4-1.7,2c-0.7,0.5-1.6,0.8-2.6,0.8
		c-1.6,0-2.6-0.6-3.1-1.7c-0.4-1.1-0.7-2.9-0.7-5.1L232.2,44.9z"/>
	<radialGradient id="SVGID_3_" cx="119.414" cy="116.7508" r="241.8879" gradientUnits="userSpaceOnUse">
		<stop  offset="0" style="stop-color:#FEC053"/>
		<stop  offset="0.3273" style="stop-color:#F2203E"/>
		<stop  offset="0.6485" style="stop-color:#B729A8"/>
		<stop  offset="1" style="stop-color:#5342D6"/>
	</radialGradient>
	<path class="st3" d="M252.9,53.2c0,0.8-0.3,1.5-0.8,2c-0.6,0.5-1.2,0.8-1.9,1c-0.7,0.2-1.5,0.3-2.2,0.4c-0.7,0.1-1.2,0.1-1.6,0.1
		c-0.5,0-1.1-0.1-1.8-0.2c-0.7-0.1-1.4-0.3-2.1-0.5c-0.7-0.2-1.3-0.6-1.8-1c-0.5-0.4-0.7-1-0.7-1.6c0-0.4,0.1-0.7,0.5-0.8
		c0.3-0.2,0.6-0.2,0.9-0.2c0.4,0,0.8,0.1,1.1,0.4c0.4,0.3,0.8,0.6,1.2,0.9c0.4,0.3,0.9,0.6,1.4,0.9c0.5,0.3,1.1,0.4,1.7,0.4
		c0.3,0,0.7-0.1,1.1-0.3c0.5-0.2,0.7-0.5,0.7-1c0-0.5-0.2-1-0.6-1.4c-0.4-0.5-0.9-0.9-1.5-1.4c-0.6-0.5-1.3-1-2-1.5
		c-0.7-0.5-1.4-1.1-2-1.7c-0.6-0.6-1.1-1.3-1.5-2c-0.4-0.7-0.6-1.6-0.6-2.4c0-1.2,0.4-2.3,1.2-3.1c0.8-0.8,1.7-1.5,2.8-2
		c1.1-0.5,2.2-0.8,3.3-1.1c1.1-0.2,2-0.3,2.7-0.3c0.6,0,1.2,0.1,1.8,0.4c0.6,0.2,0.9,0.7,0.9,1.4c0,0.2,0,0.5-0.1,0.9
		c-0.1,0.4-0.2,0.8-0.4,1.2c-0.2,0.4-0.5,0.7-0.8,1c-0.3,0.3-0.7,0.5-1.2,0.5c-0.1,0-0.3-0.1-0.4-0.2c-0.1-0.1-0.3-0.3-0.5-0.4
		c-0.2-0.2-0.4-0.3-0.6-0.4c-0.2-0.1-0.4-0.2-0.7-0.2c-1.2,0-2.1,0.4-2.6,1.1c-0.5,0.7-0.7,1.5-0.7,2.3c0,0.7,0.4,1.5,1.2,2.2
		c0.8,0.8,1.8,1.6,2.8,2.3c1,0.8,1.9,1.5,2.8,2.3C252.5,51.7,252.9,52.5,252.9,53.2z"/>
	<radialGradient id="SVGID_4_" cx="119.4143" cy="116.7507" r="241.888" gradientUnits="userSpaceOnUse">
		<stop  offset="0" style="stop-color:#FEC053"/>
		<stop  offset="0.3273" style="stop-color:#F2203E"/>
		<stop  offset="0.6485" style="stop-color:#B729A8"/>
		<stop  offset="1" style="stop-color:#5342D6"/>
	</radialGradient>
	<path class="st4" d="M254.1,46.8c0-1.8,0.1-3.6,0.2-5.5c0.1-1.9,0.1-3.6,0.2-5.2c0-0.3-0.3-0.5-0.8-0.6c-0.6-0.1-1.2-0.2-1.9-0.3
		c-0.7-0.1-1.3-0.3-1.9-0.5c-0.6-0.2-0.8-0.6-0.8-1.1c0-0.5,0.5-0.7,1.4-0.8c0.9-0.1,2.3-0.1,4.1-0.1c0.1,0,0.2-0.2,0.3-0.6
		c0.1-0.4,0.1-1,0.1-1.6c0-0.7,0-1.4,0.1-2.1c0-0.7,0-1.4,0.1-2.1c0-0.7,0.1-1.2,0.2-1.6c0.1-0.4,0.2-0.6,0.3-0.6c0.2,0,0.5,0,1,0.1
		c0.5,0.1,0.9,0.2,1.4,0.3c0.5,0.1,0.9,0.3,1.3,0.5c0.4,0.2,0.6,0.4,0.6,0.6l-0.6,6.9c0,0.2,0.2,0.4,0.6,0.5
		c0.4,0.1,0.9,0.1,1.4,0.2c0.6,0,1.2,0,1.9,0c0.7,0,1.3,0.1,1.9,0.2c0.6,0.1,1.1,0.3,1.4,0.5c0.4,0.2,0.6,0.6,0.6,1
		c0,0.1,0,0.2-0.1,0.3c-0.1,0.2-0.2,0.2-0.3,0.2c-0.1,0-0.2-0.1-0.3-0.2c-0.1-0.1-0.5-0.2-1-0.2c-0.1,0-0.5,0-1.2,0.1
		c-0.6,0-1.3,0.1-2,0.2c-0.7,0.1-1.4,0.2-1.9,0.2c-0.6,0.1-0.9,0.2-1,0.3c0,0.1-0.1,0.5-0.1,1.2c-0.1,0.8-0.1,1.8-0.2,3
		c-0.1,1.2-0.1,2.7-0.1,4.3c0,1.6-0.1,3.3-0.1,5.1c0,0.7,0,1.3,0.1,2c0.1,0.6,0.2,1.2,0.3,1.7c0.1,0.5,0.3,0.9,0.6,1.2
		c0.2,0.3,0.5,0.5,0.8,0.5c0.5,0,0.9-0.2,1.3-0.6c0.4-0.4,0.7-0.9,1.1-1.6c0.3-0.7,0.6-1.4,0.8-2.3c0.2-0.8,0.5-1.7,0.6-2.6
		c0.1-0.5,0.2-0.9,0.4-1.1c0.1-0.2,0.4-0.3,0.6-0.3c0.2,0,0.5,0.1,0.7,0.2c0.2,0.2,0.3,0.5,0.3,1.1c0,0.4,0,0.6-0.1,0.7
		c-0.1,0.6-0.3,1.5-0.6,2.6c-0.3,1.1-0.7,2.2-1.2,3.3c-0.5,1.1-1.1,2-1.9,2.8c-0.7,0.8-1.6,1.2-2.6,1.2c-1,0-1.8-0.3-2.5-0.8
		c-0.7-0.5-1.3-1.3-1.8-2.3c-0.5-1-0.8-2.1-1.1-3.5c-0.2-1.3-0.4-2.8-0.4-4.3V46.8z"/>
	<radialGradient id="SVGID_5_" cx="119.4142" cy="116.751" r="241.8882" gradientUnits="userSpaceOnUse">
		<stop  offset="0" style="stop-color:#FEC053"/>
		<stop  offset="0.3273" style="stop-color:#F2203E"/>
		<stop  offset="0.6485" style="stop-color:#B729A8"/>
		<stop  offset="1" style="stop-color:#5342D6"/>
	</radialGradient>
	<path class="st5" d="M285.6,50.7c-0.1,0.5-0.2,1.1-0.5,1.8c-0.3,0.7-0.6,1.3-1.1,1.9c-0.4,0.6-1,1.1-1.5,1.6
		c-0.6,0.4-1.2,0.6-1.9,0.6c-1.1,0-2-0.4-2.8-1.2c-0.8-0.8-1.3-2-1.5-3.5c-0.2,0.6-0.5,1.2-0.7,2c-0.3,0.7-0.6,1.4-1.1,2.1
		c-0.4,0.6-0.9,1.2-1.5,1.6c-0.5,0.4-1.2,0.7-1.9,0.7c-0.2,0-0.4,0-0.5-0.1c-0.1,0-0.2-0.1-0.3-0.1c-0.1-0.1-0.3-0.1-0.4-0.1
		c-0.2,0-0.4-0.1-0.7-0.1c-0.8,0-1.6-0.3-2.1-0.8c-0.6-0.5-1.1-1.2-1.4-2.1c-0.4-0.8-0.6-1.8-0.8-2.8c-0.2-1-0.2-2-0.2-2.8
		c0-2.1,0.1-4.1,0.3-6.1c0.2-1.9,0.6-3.6,1.1-5.1c0.5-1.5,1.2-2.6,2.1-3.5c0.9-0.9,1.9-1.3,3.1-1.3c0.7,0,1.2,0.1,1.6,0.2
		c0.4,0.1,0.7,0.3,1,0.4c0.3,0.2,0.7,0.3,1,0.5c0.4,0.2,0.9,0.3,1.6,0.4c0.7,0.4,1.3,0.9,1.6,1.5c0.3,0.6,0.5,1.2,0.6,1.9
		c0.1,0.7,0.1,1.4,0.1,2.1c0,0.7,0,1.4,0.1,2.2c0,0,0.1,0.1,0.2,0.2c0.2,0.1,0.3,0.2,0.6,0.2c0.2,0.1,0.4,0.2,0.6,0.4
		c0.2,0.2,0.2,0.4,0.2,0.6v0.2c-0.4,0.9-0.6,1.7-0.6,2.4c-0.1,0.7-0.1,1.6-0.1,2.5c0,0.5,0,1,0.1,1.6c0.1,0.6,0.1,1.1,0.3,1.6
		c0.1,0.5,0.3,0.9,0.6,1.3c0.2,0.3,0.6,0.5,1,0.5c0.4,0,0.8-0.2,1.1-0.6c0.3-0.4,0.6-0.9,0.8-1.5c0.2-0.5,0.4-1.1,0.6-1.7
		c0.2-0.6,0.3-1,0.3-1.3c0.1-0.4,0.2-0.6,0.5-0.6c0.2,0,0.3,0.1,0.5,0.3c0.2,0.2,0.2,0.5,0.2,1c0,0.1,0,0.3,0,0.4
		C285.6,50.3,285.6,50.5,285.6,50.7z M275.8,42.1c0-0.4,0-0.8-0.1-1.4c-0.1-0.5-0.2-1-0.4-1.5c-0.2-0.5-0.4-0.8-0.8-1.2
		c-0.4-0.3-0.8-0.5-1.4-0.5c-1,0-1.8,0.5-2.4,1.4c-0.6,0.9-1.1,2-1.5,3.2c-0.4,1.2-0.6,2.5-0.7,3.8c-0.1,1.3-0.2,2.3-0.2,3.1
		c0,0.6,0,1.2,0.1,2c0.1,0.8,0.2,1.5,0.3,2.3c0.1,0.7,0.3,1.3,0.6,1.8c0.3,0.5,0.6,0.7,1,0.7c1,0,1.8-0.4,2.4-1.2
		c0.5-0.8,1-1.8,1.2-3c0.3-1.2,0.5-2.5,0.6-3.8c0.1-1.4,0.2-2.6,0.3-3.7c0.1-0.6,0.2-1,0.5-1.1c0.2-0.2,0.4-0.3,0.4-0.3V42.1z"/>
	<radialGradient id="SVGID_6_" cx="119.4139" cy="116.7507" r="241.8875" gradientUnits="userSpaceOnUse">
		<stop  offset="0" style="stop-color:#FEC053"/>
		<stop  offset="0.3273" style="stop-color:#F2203E"/>
		<stop  offset="0.6485" style="stop-color:#B729A8"/>
		<stop  offset="1" style="stop-color:#5342D6"/>
	</radialGradient>
	<path class="st6" d="M301.6,57.8c0,0.4-0.2,0.6-0.5,0.7c-0.3,0.1-0.6,0.2-0.9,0.2l-1.1-0.1c-0.2,0-0.3,0.1-0.3,0.3l-0.1,0.6
		c0,1,0.1,2.2,0.1,3.6c0,1.5,0,2.8,0,4.2c0,1.4,0,2.8-0.1,4.2c-0.1,1.4-0.3,2.6-0.6,3.7c-0.3,1.1-0.8,1.9-1.4,2.6
		c-0.6,0.7-1.4,1-2.4,1c-0.9,0-1.8,0-2.8-0.1c-1-0.1-1.9-0.3-2.7-0.7c-0.8-0.4-1.5-0.9-2-1.6c-0.5-0.7-0.8-1.6-0.8-2.8
		s0.1-2.4,0.4-3.6c0.3-1.2,0.6-2.4,1.1-3.6c0.5-1.2,1.1-2.2,1.8-3.3c0.7-1,1.5-2,2.3-2.8c0.4-0.4,0.9-0.9,1.4-1.3
		c0.5-0.4,1-0.8,1.4-1.1v-0.1c0.1-0.7,0.1-1.5,0.2-2.2c0-0.7,0.1-1.5,0.1-2.3c-0.2,0.3-0.4,0.8-0.6,1.3c-0.2,0.5-0.5,1.1-0.9,1.6
		c-0.3,0.5-0.7,0.9-1.1,1.3c-0.4,0.4-0.9,0.6-1.4,0.6c-0.3,0-0.5-0.1-0.7-0.2c-0.2-0.1-0.5-0.2-0.9-0.2c-1-0.1-1.8-0.3-2.5-0.8
		c-0.7-0.5-1.2-1.1-1.5-1.9c-0.4-0.8-0.6-1.8-0.8-2.9c-0.1-1.1-0.2-2.4-0.2-3.7c0-1.7,0.1-3.4,0.3-5.1c0.2-1.8,0.5-3.4,1-4.9
		c0.5-1.5,1.2-2.7,2-3.6c0.8-0.9,1.9-1.4,3.2-1.4c0.1,0,0.3,0.1,0.6,0.2c0.2,0.1,0.5,0.2,0.7,0.3c0.3,0.1,0.5,0.2,0.8,0.4
		c0.3,0.1,0.5,0.2,0.6,0.2c0.7,0.1,1.4,0.3,2,0.5c0.6,0.2,1.1,0.5,1.5,0.8c0.4,0.3,0.8,0.8,1,1.3c0.2,0.5,0.4,1.2,0.4,2
		c0,0.6,0,1.1-0.1,1.5c-0.1,0.5-0.1,1-0.1,1.8c0,0.3,0.1,0.5,0.3,0.6c0.2,0.1,0.4,0.2,0.7,0.3c0.3,0.1,0.5,0.2,0.7,0.2
		c0.2,0.1,0.3,0.3,0.3,0.6c0,0.1-0.1,0.2-0.2,0.5c-0.2,0.3-0.3,0.4-0.3,0.5c-0.1,0.3-0.2,0.7-0.3,1.4c-0.1,0.6-0.1,1.3-0.2,2
		c0,0.7-0.1,1.5-0.1,2.2c0,0.8,0,1.4,0,2c0,0.5,0,1.1,0,1.8c0,0.8,0,1.4,0.1,1.9h0.2c0.1,0,0.1,0,0.2,0c0.1,0,0.1,0,0.2,0
		c0.3,0,0.8,0.1,1.3,0.3C301.3,57.2,301.6,57.4,301.6,57.8z M294.9,41.4c0-0.4,0-0.8-0.1-1.3c-0.1-0.5-0.2-1-0.4-1.4
		c-0.2-0.4-0.4-0.8-0.8-1.1c-0.3-0.3-0.8-0.5-1.3-0.5c-0.7,0-1.3,0.3-1.9,0.8c-0.6,0.5-1.1,1.3-1.6,2.3c-0.4,1-0.8,2.2-1.1,3.6
		c-0.3,1.4-0.4,3-0.4,4.8c0,0.7,0,1.5,0.1,2.3c0.1,0.8,0.1,1.5,0.3,2.2c0.1,0.6,0.3,1.2,0.6,1.6c0.3,0.4,0.6,0.6,1,0.6
		c0.7,0,1.4-0.3,2-1c0.6-0.6,1-1.4,1.4-2.4c0.4-0.9,0.7-1.9,0.8-2.9c0.2-1,0.3-1.9,0.3-2.6c0-1,0.1-1.7,0.2-2.1
		c0.1-0.4,0.1-0.6,0.2-0.7c0.2-0.3,0.4-0.6,0.4-1C294.8,42.1,294.9,41.8,294.9,41.4z M294.7,59.9c-0.8,0.6-1.6,1.4-2.3,2.4
		c-0.7,1-1.4,2.1-1.9,3.3c-0.5,1.2-1,2.4-1.3,3.7c-0.3,1.2-0.5,2.4-0.5,3.3c0,0.4,0,0.7,0.1,1.2c0.1,0.4,0.2,0.8,0.3,1.2
		c0.2,0.4,0.4,0.7,0.7,0.9c0.3,0.2,0.7,0.4,1.1,0.4c0.8,0,1.4-0.3,1.8-0.9c0.5-0.6,0.9-1.4,1.1-2.2c0.3-0.8,0.4-1.7,0.5-2.6
		c0.1-0.9,0.1-1.6,0.1-2.1c0-0.1,0-0.3,0-0.5c0-0.2,0-0.6,0-1.2c0-0.6,0-1.4,0-2.5C294.7,63.1,294.7,61.7,294.7,59.9z"/>
	<radialGradient id="SVGID_7_" cx="119.415" cy="116.7507" r="241.8861" gradientUnits="userSpaceOnUse">
		<stop  offset="0" style="stop-color:#FEC053"/>
		<stop  offset="0.3273" style="stop-color:#F2203E"/>
		<stop  offset="0.6485" style="stop-color:#B729A8"/>
		<stop  offset="1" style="stop-color:#5342D6"/>
	</radialGradient>
	<path class="st7" d="M317.5,49c0,0.2-0.1,0.8-0.2,1.8c-0.2,0.9-0.4,1.9-0.9,3c-0.4,1-1,2-1.6,2.8c-0.7,0.8-1.6,1.2-2.6,1.2
		c-1.1,0-2-0.4-2.7-1.2c-0.7-0.8-1.2-1.8-1.5-2.9c-0.4-1.1-0.6-2.3-0.7-3.5c-0.1-1.2-0.2-2.2-0.2-3.1c0-0.9,0.1-1.8,0.2-2.8
		c0.1-0.9,0.2-1.9,0.2-2.8c0-0.3-0.1-0.5-0.4-0.5c-0.3-0.1-0.5-0.1-0.8-0.1c-0.4,0-0.7,0.1-0.8,0.2c-0.1,0.1-0.2,0.2-0.2,0.4
		l-0.2,1.7c-0.1,1.1-0.3,2.2-0.5,3.3c-0.2,1-0.3,2-0.5,2.8c-0.2,0.8-0.4,1.4-0.7,1.9c-0.3,0.5-0.6,0.7-0.9,0.7h-0.1
		c-0.1,0-0.3,0-0.4-0.1c-0.1-0.1-0.2-0.2-0.2-0.5c0-0.1,0-0.4,0.1-0.6c0.3-1.2,0.5-2.3,0.5-3.1c0.1-0.8,0.1-1.5,0.2-2.2v-0.4
		c0-0.2,0-0.4,0-0.6c0-0.2,0-0.5,0-0.9V42c0-0.4,0-0.8,0-1.2s0-0.9-0.1-1.4l-0.2-3.1c0-0.2,0.1-0.4,0.3-0.6c0.2-0.2,0.4-0.3,0.7-0.5
		c0.3-0.1,0.6-0.2,0.9-0.3c0.3-0.1,0.6-0.1,0.8-0.1c0.6,0,0.9,0.4,0.9,1.2v0.3l-0.1,1.2v0.3c0,0.2,0.1,0.4,0.2,0.5
		c0.1,0.1,0.3,0.1,0.6,0.2h0.2c0.3,0,0.7,0.1,1.4,0.1c0.6,0,1.3,0.1,1.9,0.2c0.6,0.1,1.2,0.3,1.7,0.5c0.5,0.2,0.7,0.6,0.7,1
		c0,0.1,0,0.3-0.1,0.6c-0.1,0.3-0.2,0.5-0.3,0.8c-0.1,0.3-0.2,0.5-0.3,0.7c-0.1,0.2-0.1,0.4-0.1,0.4c-0.6,2.4-1,5-1,7.6
		c0,0.2,0,0.6,0.1,1.2c0,0.6,0.1,1.1,0.2,1.8c0.1,0.6,0.3,1.1,0.5,1.6c0.2,0.5,0.5,0.7,0.8,0.7c0.5,0,1-0.3,1.4-1
		c0.4-0.7,0.8-1.4,1.1-2.3c0.3-0.9,0.6-1.7,0.8-2.6c0.2-0.9,0.3-1.5,0.4-2c0.1-0.4,0.2-0.6,0.3-0.7c0.2-0.1,0.3-0.1,0.5-0.1
		c0.5,0,0.7,0.3,0.7,1c0,0.1,0,0.3,0,0.6C317.5,48.6,317.5,48.8,317.5,49z"/>
	<radialGradient id="SVGID_8_" cx="119.4144" cy="116.751" r="241.8869" gradientUnits="userSpaceOnUse">
		<stop  offset="0" style="stop-color:#FEC053"/>
		<stop  offset="0.3273" style="stop-color:#F2203E"/>
		<stop  offset="0.6485" style="stop-color:#B729A8"/>
		<stop  offset="1" style="stop-color:#5342D6"/>
	</radialGradient>
	<path class="st8" d="M337,50.7c-0.1,0.5-0.2,1.1-0.5,1.8c-0.3,0.7-0.6,1.3-1.1,1.9c-0.4,0.6-1,1.1-1.5,1.6s-1.2,0.6-1.9,0.6
		c-1.1,0-2-0.4-2.8-1.2c-0.8-0.8-1.3-2-1.5-3.5c-0.2,0.6-0.5,1.2-0.7,2c-0.3,0.7-0.6,1.4-1.1,2.1c-0.4,0.6-0.9,1.2-1.5,1.6
		c-0.5,0.4-1.2,0.7-1.9,0.7c-0.2,0-0.4,0-0.5-0.1c-0.1,0-0.2-0.1-0.3-0.1c-0.1-0.1-0.3-0.1-0.4-0.1c-0.2,0-0.4-0.1-0.7-0.1
		c-0.8,0-1.6-0.3-2.2-0.8c-0.6-0.5-1.1-1.2-1.4-2.1c-0.4-0.8-0.6-1.8-0.8-2.8c-0.2-1-0.2-2-0.2-2.8c0-2.1,0.1-4.1,0.3-6.1
		c0.2-1.9,0.6-3.6,1.1-5.1c0.5-1.5,1.2-2.6,2.1-3.5c0.8-0.9,1.9-1.3,3.1-1.3c0.7,0,1.2,0.1,1.6,0.2c0.4,0.1,0.7,0.3,1,0.4
		c0.3,0.2,0.7,0.3,1,0.5c0.4,0.2,0.9,0.3,1.6,0.4c0.7,0.4,1.3,0.9,1.6,1.5c0.3,0.6,0.5,1.2,0.6,1.9c0.1,0.7,0.1,1.4,0.1,2.1
		c0,0.7,0,1.4,0.1,2.2c0,0,0.1,0.1,0.2,0.2c0.2,0.1,0.3,0.2,0.6,0.2c0.2,0.1,0.4,0.2,0.6,0.4c0.2,0.2,0.2,0.4,0.2,0.6v0.2
		c-0.4,0.9-0.6,1.7-0.6,2.4c-0.1,0.7-0.1,1.6-0.1,2.5c0,0.5,0,1,0.1,1.6c0.1,0.6,0.1,1.1,0.3,1.6c0.1,0.5,0.3,0.9,0.6,1.3
		c0.2,0.3,0.6,0.5,1,0.5c0.4,0,0.8-0.2,1.1-0.6c0.3-0.4,0.6-0.9,0.9-1.5c0.2-0.5,0.4-1.1,0.6-1.7c0.2-0.6,0.3-1,0.3-1.3
		c0.1-0.4,0.2-0.6,0.5-0.6c0.2,0,0.3,0.1,0.5,0.3c0.2,0.2,0.2,0.5,0.2,1c0,0.1,0,0.3,0,0.4C337,50.3,337,50.5,337,50.7z M327.1,42.1
		c0-0.4,0-0.8-0.1-1.4c-0.1-0.5-0.2-1-0.4-1.5c-0.2-0.5-0.4-0.8-0.8-1.2c-0.4-0.3-0.8-0.5-1.4-0.5c-1,0-1.8,0.5-2.4,1.4
		c-0.6,0.9-1.1,2-1.5,3.2c-0.4,1.2-0.6,2.5-0.7,3.8c-0.1,1.3-0.2,2.3-0.2,3.1c0,0.6,0,1.2,0.1,2c0.1,0.8,0.1,1.5,0.3,2.3
		c0.1,0.7,0.3,1.3,0.6,1.8c0.3,0.5,0.6,0.7,1,0.7c1,0,1.8-0.4,2.4-1.2c0.5-0.8,1-1.8,1.2-3c0.3-1.2,0.5-2.5,0.6-3.8
		c0.1-1.4,0.2-2.6,0.3-3.7c0.1-0.6,0.2-1,0.5-1.1c0.2-0.2,0.4-0.3,0.4-0.3V42.1z"/>
	<radialGradient id="SVGID_9_" cx="119.4142" cy="116.7507" r="241.8883" gradientUnits="userSpaceOnUse">
		<stop  offset="0" style="stop-color:#FEC053"/>
		<stop  offset="0.3273" style="stop-color:#F2203E"/>
		<stop  offset="0.6485" style="stop-color:#B729A8"/>
		<stop  offset="1" style="stop-color:#5342D6"/>
	</radialGradient>
	<path class="st9" d="M353.2,43.4c-0.5,1-1,2-1.4,3c-0.4,1.1-0.7,1.9-1,2.5c0,0.2-0.1,0.5-0.3,1.1c-0.2,0.6-0.3,1.2-0.5,1.9
		c-0.2,0.7-0.4,1.4-0.5,2c-0.1,0.7-0.2,1.2-0.2,1.6c0,0.2-0.2,0.3-0.5,0.5c-0.3,0.1-0.7,0.2-1.2,0.2c-0.8,0-1.4-0.1-1.9-0.3
		c-0.5-0.2-0.8-0.6-1-1c-0.2-0.5-0.4-1.1-0.4-1.9c-0.1-0.8-0.1-1.7-0.1-2.8v-4c0-0.3,0-0.6,0-0.8c0-0.3-0.1-0.5-0.2-0.5
		c-0.2,0.1-0.4,0.5-0.7,1.4c-0.3,0.8-0.5,1.9-0.7,3.1c-0.2,1.2-0.4,2.5-0.6,3.9c-0.2,1.3-0.3,2.5-0.3,3.6c0,0.4-0.2,0.6-0.6,0.7
		c-0.4,0.1-0.9,0.1-1.4,0.1c-0.1,0-0.4,0-0.7-0.1c-0.3-0.1-0.7-0.1-1-0.2c-0.3-0.1-0.6-0.2-0.9-0.3c-0.3-0.1-0.5-0.3-0.5-0.5
		c-0.2-0.5-0.3-1.2-0.4-2.3c-0.1-1.1-0.1-2.7-0.1-4.9c0-1.3,0-2.8,0.1-4.6c0.1-1.7,0.1-3.8,0.2-6.1c0-0.3,0-0.7-0.1-1.2
		c0-0.5-0.1-0.8-0.1-0.9c0-0.3,0.1-0.5,0.3-0.5c0.2-0.1,0.4-0.1,0.5-0.1c0.2,0,0.5,0,0.9,0.1c0.3,0.1,0.7,0.1,1,0.2
		c0.3,0.1,0.6,0.2,0.9,0.2c0.3,0.1,0.5,0.2,0.6,0.2v12.8c0.2-0.7,0.4-1.5,0.6-2.5c0.2-0.9,0.5-1.9,0.8-2.8c0.3-0.9,0.6-1.8,1-2.5
		c0.4-0.8,0.7-1.3,1.1-1.7c0.1-0.1,0.4-0.2,0.8-0.2c0.4-0.1,0.7-0.1,1-0.1c0.2,0,0.4,0,0.7,0.1c0.3,0.1,0.5,0.1,0.8,0.2
		c0.2,0.1,0.5,0.2,0.7,0.4c0.2,0.2,0.3,0.3,0.3,0.6v8.6v0.5c0,0.2,0,0.3,0.1,0.3c0.1,0,0.3-0.5,0.6-1.4c0.3-1,0.7-2.1,1.2-3.4
		c0.5-1.3,1-2.7,1.5-4c0.5-1.4,1-2.5,1.4-3.3c0.1-0.1,0.3-0.2,0.7-0.2c0.4,0,0.8,0,1.1,0c0.2,0,0.6,0.1,1,0.2
		c0.4,0.2,0.8,0.4,1.2,0.7c0.4,0.3,0.8,0.6,1.1,1c0.3,0.4,0.5,0.7,0.5,1.1c0,0.1-0.1,0.3-0.3,0.6c-0.2,0.3-0.4,0.7-0.4,1
		c-0.2,1-0.4,2-0.5,2.9c-0.1,1-0.1,2.2-0.1,3.7c0,0.6,0,1.3,0.1,1.9c0.1,0.6,0.1,1.2,0.3,1.7c0.1,0.5,0.3,0.9,0.5,1.2
		c0.2,0.3,0.5,0.5,0.8,0.5c0.5,0,0.9-0.2,1.3-0.5c0.4-0.3,0.7-0.8,1-1.4c0.3-0.6,0.5-1.2,0.7-2c0.2-0.8,0.4-1.5,0.5-2.4
		c0.2-0.8,0.5-1.3,1-1.3c0.3,0,0.5,0.1,0.6,0.2c0.1,0.1,0.1,0.5,0.1,1c0,0.3,0,0.5-0.1,0.6c0,0.5-0.2,1.2-0.5,2.2
		c-0.3,1-0.6,1.9-1.1,2.9c-0.5,1-1.1,1.8-1.8,2.5c-0.7,0.7-1.5,1.1-2.4,1.1c-1.1,0-2-0.3-2.7-0.8c-0.7-0.5-1.2-1.2-1.6-2.1
		c-0.4-0.9-0.7-1.9-0.8-3c-0.2-1.1-0.2-2.3-0.2-3.6v-0.4L353.2,43.4z"/>
</g>
<g>
	<radialGradient id="SVGID_10_" cx="119.4142" cy="116.7509" r="241.8881" gradientUnits="userSpaceOnUse">
		<stop  offset="0" style="stop-color:#FEC053"/>
		<stop  offset="0.3273" style="stop-color:#F2203E"/>
		<stop  offset="0.6485" style="stop-color:#B729A8"/>
		<stop  offset="1" style="stop-color:#5342D6"/>
	</radialGradient>
	<rect x="171.1" y="13.3" class="st10" width="3.3" height="55.6"/>
</g>
<g>
	
		<radialGradient id="SVGID_11_" cx="184.8626" cy="-526.7335" r="30.4483" gradientTransform="matrix(0 -1.982 -1.8439 0 -869.1607 445.2494)" gradientUnits="userSpaceOnUse">
		<stop  offset="0" style="stop-color:#FFDD55"/>
		<stop  offset="0.1" style="stop-color:#FFDD55"/>
		<stop  offset="0.5" style="stop-color:#FF543E"/>
		<stop  offset="1" style="stop-color:#C837AB"/>
	</radialGradient>
	<path class="st11" d="M116.4,13.3c-12.7,0-16.4,0-17.2,0.1c-2.6,0.2-4.2,0.6-6,1.5c-1.4,0.7-2.4,1.5-3.5,2.6
		c-1.9,2-3.1,4.5-3.5,7.4c-0.2,1.4-0.3,1.7-0.3,9c0,2.4,0,5.6,0,9.9c0,12.7,0,16.4,0.1,17.1c0.2,2.5,0.6,4.1,1.5,5.9
		c1.6,3.3,4.7,5.9,8.3,6.8c1.3,0.3,2.6,0.5,4.4,0.6c0.8,0,8.4,0.1,16.1,0.1s15.4,0,16.1,0c2.1-0.1,3.3-0.3,4.6-0.6
		c3.6-0.9,6.7-3.4,8.3-6.8c0.8-1.7,1.2-3.4,1.4-5.8c0-0.5,0.1-8.9,0.1-17.2c0-8.4,0-16.7-0.1-17.2c-0.2-2.4-0.6-4.1-1.5-5.8
		c-0.7-1.4-1.5-2.5-2.6-3.6c-2-1.9-4.5-3.1-7.4-3.5c-1.4-0.2-1.7-0.3-9-0.3H116.4z"/>
	
		<radialGradient id="SVGID_12_" cx="173.0859" cy="-356.4432" r="30.4483" gradientTransform="matrix(0.1739 0.8687 3.5818 -0.7172 1322.3036 -388.3366)" gradientUnits="userSpaceOnUse">
		<stop  offset="0" style="stop-color:#3771C8"/>
		<stop  offset="0.128" style="stop-color:#3771C8"/>
		<stop  offset="1" style="stop-color:#6600FF;stop-opacity:0"/>
	</radialGradient>
	<path class="st12" d="M116.4,13.3c-12.7,0-16.4,0-17.2,0.1c-2.6,0.2-4.2,0.6-6,1.5c-1.4,0.7-2.4,1.5-3.5,2.6
		c-1.9,2-3.1,4.5-3.5,7.4c-0.2,1.4-0.3,1.7-0.3,9c0,2.4,0,5.6,0,9.9c0,12.7,0,16.4,0.1,17.1c0.2,2.5,0.6,4.1,1.5,5.9
		c1.6,3.3,4.7,5.9,8.3,6.8c1.3,0.3,2.6,0.5,4.4,0.6c0.8,0,8.4,0.1,16.1,0.1s15.4,0,16.1,0c2.1-0.1,3.3-0.3,4.6-0.6
		c3.6-0.9,6.7-3.4,8.3-6.8c0.8-1.7,1.2-3.4,1.4-5.8c0-0.5,0.1-8.9,0.1-17.2c0-8.4,0-16.7-0.1-17.2c-0.2-2.4-0.6-4.1-1.5-5.8
		c-0.7-1.4-1.5-2.5-2.6-3.6c-2-1.9-4.5-3.1-7.4-3.5c-1.4-0.2-1.7-0.3-9-0.3H116.4z"/>
	<path class="st0" d="M116.4,21.2c-6.1,0-6.9,0-9.3,0.1c-2.4,0.1-4,0.5-5.5,1c-1.5,0.6-2.7,1.3-4,2.6c-1.3,1.2-2,2.5-2.6,4
		c-0.6,1.4-0.9,3.1-1,5.5c-0.1,2.4-0.1,3.2-0.1,9.3s0,6.9,0.1,9.3c0.1,2.4,0.5,4,1,5.5c0.6,1.5,1.3,2.7,2.6,4c1.2,1.3,2.5,2,4,2.6
		c1.4,0.6,3.1,0.9,5.5,1c2.4,0.1,3.2,0.1,9.3,0.1c6.1,0,6.9,0,9.3-0.1c2.4-0.1,4-0.5,5.5-1c1.5-0.6,2.7-1.3,4-2.6
		c1.3-1.2,2-2.5,2.6-4c0.6-1.4,0.9-3.1,1-5.5c0.1-2.4,0.1-3.2,0.1-9.3s0-6.9-0.1-9.3c-0.1-2.4-0.5-4-1-5.5c-0.6-1.5-1.3-2.7-2.6-4
		c-1.3-1.3-2.5-2-4-2.6c-1.4-0.6-3.1-0.9-5.5-1C123.2,21.3,122.5,21.2,116.4,21.2L116.4,21.2z M114.3,25.3c0.6,0,1.3,0,2,0
		c6,0,6.7,0,9.1,0.1c2.2,0.1,3.4,0.5,4.2,0.8c1,0.4,1.8,0.9,2.6,1.7c0.8,0.8,1.3,1.5,1.7,2.6c0.3,0.8,0.7,2,0.8,4.2
		c0.1,2.4,0.1,3.1,0.1,9.1s0,6.7-0.1,9.1c-0.1,2.2-0.5,3.4-0.8,4.2c-0.4,1-0.9,1.8-1.7,2.6c-0.8,0.8-1.5,1.3-2.6,1.7
		c-0.8,0.3-2,0.7-4.2,0.8c-2.4,0.1-3.1,0.1-9.1,0.1c-6,0-6.7,0-9.1-0.1c-2.2-0.1-3.4-0.5-4.2-0.8c-1-0.4-1.8-0.9-2.6-1.7
		c-0.8-0.8-1.3-1.5-1.7-2.6c-0.3-0.8-0.7-2-0.8-4.2c-0.1-2.4-0.1-3.1-0.1-9.1s0-6.7,0.1-9.1c0.1-2.2,0.5-3.4,0.8-4.2
		c0.4-1,0.9-1.8,1.7-2.6s1.5-1.3,2.6-1.7c0.8-0.3,2-0.7,4.2-0.8C109.3,25.3,110.1,25.3,114.3,25.3L114.3,25.3z M128.4,29
		c-1.5,0-2.7,1.2-2.7,2.7c0,1.5,1.2,2.7,2.7,2.7c1.5,0,2.7-1.2,2.7-2.7C131.1,30.2,129.8,29,128.4,29L128.4,29z M116.4,32.2
		c-6.4,0-11.5,5.2-11.5,11.5s5.2,11.5,11.5,11.5c6.4,0,11.5-5.2,11.5-11.5S122.7,32.2,116.4,32.2L116.4,32.2z M116.4,36.2
		c4.1,0,7.5,3.4,7.5,7.5c0,4.1-3.4,7.5-7.5,7.5c-4.1,0-7.5-3.4-7.5-7.5C108.9,39.6,112.2,36.2,116.4,36.2z"/>
</g>
</svg>
