<?xml version="1.0" encoding="utf-8"?>
<!-- Generator: Adobe Illustrator 24.0.0, SVG Export Plug-In . SVG Version: 6.00 Build 0)  -->
<svg version="1.1" id="Layer_1" xmlns="http://www.w3.org/2000/svg" xmlns:xlink="http://www.w3.org/1999/xlink" x="0px" y="0px"
	 viewBox="0 0 469.8 608.1" style="enable-background:new 0 0 469.8 608.1;" xml:space="preserve">
<style type="text/css">
	.st0{fill:#121212;}
	.st1{fill:#FF004F;}
	.st2{fill:#FFFFFF;}
	.st3{fill:#00F2EA;}
</style>
<rect class="st0" width="469.8" height="608.1"/>
<g>
	<path class="st1" d="M164.3,294.7c4.3,3.1,9.6,4.9,15.3,4.9v-10.9c-1.1,0-2.1-0.1-3.2-0.3v8.6c-5.7,0-11-1.8-15.3-4.9v22.3
		c0,11.2-9.1,20.2-20.2,20.2c-4.2,0-8-1.3-11.3-3.4c3.7,3.8,8.8,6.1,14.5,6.1c11.2,0,20.2-9.1,20.2-20.2V294.7L164.3,294.7z
		 M168.3,283.7c-2.2-2.4-3.6-5.5-4-8.9v-1.4h-3C162.1,277.7,164.7,281.5,168.3,283.7L168.3,283.7z M136.7,322.6
		c-1.2-1.6-1.9-3.6-1.9-5.6c0-5.1,4.1-9.2,9.3-9.2c1,0,1.9,0.1,2.8,0.4V297c-1.1-0.1-2.1-0.2-3.2-0.2v8.7c-0.9-0.3-1.9-0.4-2.8-0.4
		c-5.1,0-9.3,4.1-9.3,9.2C131.6,318,133.7,321.1,136.7,322.6z"/>
	<path class="st2" d="M161.1,292.1c4.3,3.1,9.6,4.9,15.3,4.9v-8.6c-3.2-0.7-6-2.3-8.1-4.6c-3.6-2.3-6.2-6-7-10.3h-8v43.7
		c0,5.1-4.2,9.2-9.3,9.2c-3,0-5.7-1.4-7.4-3.6c-3-1.5-5.1-4.7-5.1-8.3c0-5.1,4.1-9.2,9.3-9.2c1,0,1.9,0.2,2.8,0.4V297
		c-11,0.2-19.8,9.2-19.8,20.2c0,5.5,2.2,10.5,5.8,14.1c3.2,2.2,7.1,3.4,11.3,3.4c11.2,0,20.2-9.1,20.2-20.2V292.1L161.1,292.1z"/>
	<path class="st3" d="M176.4,288.3V286c-2.9,0-5.7-0.8-8.1-2.3C170.4,286.1,173.3,287.7,176.4,288.3z M161.3,273.4
		c-0.1-0.4-0.1-0.8-0.2-1.3v-1.4h-11v43.7c0,5.1-4.2,9.2-9.3,9.2c-1.5,0-2.9-0.4-4.2-1c1.7,2.2,4.4,3.6,7.4,3.6
		c5.1,0,9.2-4.1,9.3-9.2v-43.6H161.3z M143.7,296.9v-2.5c-0.9-0.1-1.8-0.2-2.8-0.2c-11.2,0-20.2,9.1-20.2,20.2c0,7,3.6,13.2,9,16.8
		c-3.6-3.6-5.8-8.6-5.8-14.1C123.9,306,132.7,297.1,143.7,296.9z"/>
	<path class="st1" d="M303.9,325.5c8,0,14.5-6.4,14.5-14.4c0-7.9-6.5-14.4-14.5-14.4h-2.2c8,0,14.5,6.4,14.5,14.4
		s-6.5,14.4-14.5,14.4H303.9z"/>
	<path class="st3" d="M301.6,296.8h-2.2c-8,0-14.5,6.4-14.5,14.4s6.5,14.4,14.5,14.4h2.2c-8,0-14.5-6.4-14.5-14.4
		S293.6,296.8,301.6,296.8z"/>
	<path class="st2" d="M191.5,290.3v7.3h8.5v27.7h8.5v-27.6h6.9l2.4-7.5L191.5,290.3L191.5,290.3z M261.3,290.3v7.3h8.5v27.7h8.5
		v-27.6h6.9l2.4-7.5L261.3,290.3L261.3,290.3z M219.5,294.4c0-2.3,1.9-4.1,4.2-4.1s4.2,1.8,4.2,4.1s-1.9,4.1-4.2,4.1
		C221.3,298.5,219.5,296.7,219.5,294.4z M219.5,301.5h8.3v23.8h-8.3V301.5z M231.4,290.3v35h8.3v-9l2.6-2.4l8.1,11.6h8.9l-11.7-16.9
		l10.5-10.2H248l-8.3,8.3v-16.4H231.4z M321.2,290.3v35h8.3v-9l2.6-2.4l8.1,11.6h8.9l-11.7-16.9l10.5-10.3h-10.1l-8.3,8.3v-16.3
		H321.2z"/>
	<path class="st2" d="M301.7,325.5c8,0,14.5-6.4,14.5-14.4c0-7.9-6.5-14.4-14.5-14.4h-0.2c-8,0-14.5,6.4-14.5,14.4
		s6.5,14.4,14.5,14.4H301.7z M294.6,311.1c0-3.9,3.2-7,7-7c3.9,0,7,3.1,7,7c0,3.9-3.2,7-7,7C297.8,318.1,294.6,315,294.6,311.1z"/>
</g>
</svg>
