<?xml version="1.0" encoding="utf-8"?>
<!-- Generator: Adobe Illustrator 24.0.0, SVG Export Plug-In . SVG Version: 6.00 Build 0)  -->
<svg version="1.1" id="Layer_1" xmlns="http://www.w3.org/2000/svg" xmlns:xlink="http://www.w3.org/1999/xlink" x="0px" y="0px"
	 viewBox="0 0 460 90" style="enable-background:new 0 0 460 90;" xml:space="preserve">
<style type="text/css">
	.st0{fill:#FFFFFF;}
	.st1{fill:#FF004F;}
	.st2{fill:#00F2EA;}
</style>
<rect class="st0" width="460" height="90"/>
<g>
	<path class="st1" d="M159.4,35.7c4.3,3.1,9.6,4.9,15.3,4.9V29.7c-1.1,0-2.1-0.1-3.2-0.3V38c-5.7,0-11-1.8-15.3-4.9v22.3
		c0,11.2-9.1,20.2-20.2,20.2c-4.2,0-8-1.3-11.3-3.4c3.7,3.8,8.8,6.1,14.5,6.1c11.2,0,20.2-9.1,20.2-20.2L159.4,35.7L159.4,35.7z
		 M163.4,24.7c-2.2-2.4-3.6-5.5-4-8.9v-1.4h-3C157.2,18.7,159.8,22.5,163.4,24.7L163.4,24.7z M131.8,63.6c-1.2-1.6-1.9-3.6-1.9-5.6
		c0-5.1,4.1-9.2,9.3-9.2c1,0,1.9,0.1,2.8,0.4V38c-1.1-0.1-2.1-0.2-3.2-0.2v8.7c-0.9-0.3-1.9-0.4-2.8-0.4c-5.1,0-9.3,4.1-9.3,9.2
		C126.7,59,128.8,62.1,131.8,63.6z"/>
	<path d="M156.2,33.1c4.3,3.1,9.6,4.9,15.3,4.9v-8.6c-3.2-0.7-6-2.3-8.1-4.6c-3.6-2.3-6.2-6-7-10.3h-8v43.7c0,5.1-4.2,9.2-9.3,9.2
		c-3,0-5.7-1.4-7.4-3.6c-3-1.5-5.1-4.7-5.1-8.3c0-5.1,4.1-9.2,9.3-9.2c1,0,1.9,0.2,2.8,0.4v-8.7c-11,0.2-19.8,9.2-19.8,20.2
		c0,5.5,2.2,10.5,5.8,14.1c3.2,2.2,7.1,3.4,11.3,3.4c11.2,0,20.2-9.1,20.2-20.2L156.2,33.1L156.2,33.1z"/>
	<path class="st2" d="M171.5,29.3V27c-2.9,0-5.7-0.8-8.1-2.3C165.5,27.1,168.4,28.7,171.5,29.3z M156.4,14.4
		c-0.1-0.4-0.1-0.8-0.2-1.3v-1.4h-11v43.7c0,5.1-4.2,9.2-9.3,9.2c-1.5,0-2.9-0.4-4.2-1c1.7,2.2,4.4,3.6,7.4,3.6
		c5.1,0,9.2-4.1,9.3-9.2V14.4H156.4z M138.8,37.9v-2.5c-0.9-0.1-1.8-0.2-2.8-0.2c-11.2,0-20.2,9.1-20.2,20.2c0,7,3.6,13.2,9,16.8
		c-3.6-3.6-5.8-8.6-5.8-14.1C119,47,127.8,38.1,138.8,37.9z"/>
	<path class="st1" d="M299,66.5c8,0,14.5-6.4,14.5-14.4c0-7.9-6.5-14.4-14.5-14.4h-2.2c8,0,14.5,6.4,14.5,14.4s-6.5,14.4-14.5,14.4
		H299z"/>
	<path class="st2" d="M296.7,37.8h-2.2c-8,0-14.5,6.4-14.5,14.4s6.5,14.4,14.5,14.4h2.2c-8,0-14.5-6.4-14.5-14.4
		C282.2,44.2,288.7,37.8,296.7,37.8z"/>
	<path d="M186.6,31.3v7.3h8.5v27.7h8.5V38.7h6.9l2.4-7.5L186.6,31.3L186.6,31.3z M256.4,31.3v7.3h8.5v27.7h8.5V38.7h6.9l2.4-7.5
		L256.4,31.3L256.4,31.3z M214.6,35.4c0-2.3,1.9-4.1,4.2-4.1c2.3,0,4.2,1.8,4.2,4.1c0,2.3-1.9,4.1-4.2,4.1
		C216.4,39.5,214.6,37.7,214.6,35.4z M214.6,42.5h8.3v23.8h-8.3V42.5z M226.5,31.3v35h8.3v-9l2.6-2.4l8.1,11.6h8.9l-11.7-16.9
		l10.5-10.2h-10.1l-8.3,8.3V31.3H226.5z M316.3,31.3v35h8.3v-9l2.6-2.4l8.1,11.6h8.9l-11.7-16.9L343,39.3h-10.1l-8.3,8.3V31.3H316.3
		z"/>
	<path d="M296.8,66.5c8,0,14.5-6.4,14.5-14.4c0-7.9-6.5-14.4-14.5-14.4h-0.2c-8,0-14.5,6.4-14.5,14.4s6.5,14.4,14.5,14.4H296.8z
		 M289.7,52.1c0-3.9,3.2-7,7-7c3.9,0,7,3.1,7,7s-3.2,7-7,7C292.9,59.1,289.7,56,289.7,52.1z"/>
</g>
</svg>
